# xmcd
#
# Track frame offsets: 
#        150
#        15075
#        28387
#        41290
#        55350
#        67912
#        91387
#        115950
#        137250
#        149025
#        163425
#        177225
#        199350
#        209925
#
# Disc length: 2983 seconds
#
# Revision: 3
# Processed by: cddbd v1.5.2PL0 Copyright (c) Steve Scherf et al.
# Submitted via: ExactAudioCopy v1.3
#
DISCID=d30ba50e
DTITLE=Various Artist - Bluegrass Today - The Hits
DYEAR=1996
DGENRE=Bluegrass
TTITLE0=Rice Brother - Grapes On The Vine
TTITLE1=Alison Krauss - I`ve Got That Old Feeling
TTITLE2=Nashville Bluegrass Band - Blue Train
TTITLE3=Jim and Jesse McReynolds - Flower In The Desert
TTITLE4=Doyle Lawson and Quicksilver - Little Mountain Church House
TTITLE5=Johnson Mountain Boys - Blue Diamond Mines
TTITLE6=Laurie Lewis - Who Will Watch The Home Place ?
TTITLE7=Northern Lights - Northern Rail
TTITLE8=Alison Browne - Leaving Cottondale
TTITLE9=Lonesome River Band - Looking For Yourself
TTITLE10=Lynn Morris - The Bramble And The Vine
TTITLE11=3rd Tyme Out - Erase The Miles
TTITLE12=Del McCoury - Cheek To Cheek With The Blues
TTITLE13=Cox Family - Standing By The Bedside Of A Neighbor
EXTD=
EXTT0=
EXTT1=
EXTT2=
EXTT3=
EXTT4=
EXTT5=
EXTT6=
EXTT7=
EXTT8=
EXTT9=
EXTT10=
EXTT11=
EXTT12=
EXTT13=
PLAYORDER=
